<?xml version="1.0" encoding="utf-8"?>
<!-- Generator: Adobe Illustrator 15.1.0, SVG Export Plug-In . SVG Version: 6.00 Build 0)  -->
<!DOCTYPE svg PUBLIC "-//W3C//DTD SVG 1.1//EN" "http://www.w3.org/Graphics/SVG/1.1/DTD/svg11.dtd">
<svg version="1.1" id="Layer_1" xmlns="http://www.w3.org/2000/svg" xmlns:xlink="http://www.w3.org/1999/xlink" x="0px" y="0px"
	 width="532px" height="532px" viewBox="0 0 532 532" enable-background="new 0 0 532 532" xml:space="preserve">
<g>
	
		<radialGradient id="SVGID_1_" cx="315.8652" cy="341.8369" r="342.0748" gradientTransform="matrix(1 0 0 1.025 0 -8.5357)" gradientUnits="userSpaceOnUse">
		<stop  offset="0" style="stop-color:#85111D"/>
		<stop  offset="1" style="stop-color:#FF2137"/>
	</radialGradient>
	<circle fill="url(#SVGID_1_)" cx="266" cy="266" r="236.861"/>
	<radialGradient id="SVGID_2_" cx="204.7065" cy="223.4067" r="253.4833" gradientUnits="userSpaceOnUse">
		<stop  offset="0" style="stop-color:#85111D"/>
		<stop  offset="1" style="stop-color:#FF2137"/>
	</radialGradient>
	<path fill="url(#SVGID_2_)" d="M266,29.138c130.816,0,236.861,106.046,236.861,236.862c0,130.816-106.045,236.861-236.861,236.861
		C135.184,502.861,29.139,396.816,29.139,266C29.139,135.185,135.184,29.138,266,29.138 M266,12.517
		C126.232,12.517,12.517,126.231,12.517,266c0,139.776,113.715,253.483,253.483,253.483c139.776,0,253.483-113.707,253.483-253.483
		C519.483,126.231,405.776,12.517,266,12.517L266,12.517z"/>
	<g>
		<path fill="#FFFFFF" d="M374.772,170.976l0.081-0.064l-48.404-48.47l-0.017,0.024c-9.058-9.18-21.604-14.893-35.5-14.893h-99.731
			c-27.538,0-49.866,22.318-49.866,49.865v216.084c0,27.546,22.328,49.866,49.866,49.866h149.597
			c27.529,0,49.865-22.32,49.865-49.866V207.304C390.664,192.931,384.496,180.083,374.772,170.976z M365.244,375.211
			c0,13.505-10.94,24.445-24.445,24.445H190.715c-13.497,0-24.446-10.94-24.446-24.445l0.495-217.911
			c0-13.505,10.949-24.445,24.446-24.445h101.021v25.104c0,27.4,22.206,49.605,49.606,49.605h23.828L365.244,375.211z"/>
		<path fill="#FFFFFF" d="M204.496,205.575h69.758c-7.466-10.567-12.279-22.961-14.13-36.36h-55.628
			c-7.337,0-13.294,5.949-13.294,13.294v9.771C191.202,199.626,197.159,205.575,204.496,205.575z"/>
		<rect x="191.202" y="241.587" fill="#FFFFFF" width="24.414" height="24.413"/>
		<rect x="240.548" y="241.587" fill="#FFFFFF" width="100.251" height="24.413"/>
		<rect x="191.202" y="289.894" fill="#FFFFFF" width="24.414" height="24.414"/>
		<rect x="240.548" y="289.894" fill="#FFFFFF" width="100.251" height="24.414"/>
		<rect x="191.202" y="338.721" fill="#FFFFFF" width="24.414" height="24.413"/>
		<rect x="240.548" y="338.721" fill="#FFFFFF" width="100.251" height="24.413"/>
	</g>
</g>
</svg>
